<?xml version="1.0" encoding="iso-8859-1"?>
<!-- Uploaded to: SVG Repo, www.svgrepo.com, Generator: SVG Repo Mixer Tools -->
<svg fill="#000000" height="800px" width="800px" version="1.1" id="Layer_1" xmlns="http://www.w3.org/2000/svg" xmlns:xlink="http://www.w3.org/1999/xlink" 
	 viewBox="0 0 512 512" xml:space="preserve">
<g>
	<g>
		<g>
			<path d="M426.667,426.667c14.142,0,25.6-11.458,25.6-25.6s-11.458-25.6-25.6-25.6s-25.6,11.458-25.6,25.6
				S412.525,426.667,426.667,426.667z M426.667,392.533c4.716,0,8.533,3.817,8.533,8.533c0,4.716-3.817,8.533-8.533,8.533
				s-8.533-3.817-8.533-8.533C418.133,396.35,421.95,392.533,426.667,392.533z"/>
			<path d="M358.4,426.667c14.142,0,25.6-11.458,25.6-25.6s-11.458-25.6-25.6-25.6s-25.6,11.458-25.6,25.6
				S344.258,426.667,358.4,426.667z M358.4,392.533c4.716,0,8.533,3.817,8.533,8.533c0,4.716-3.817,8.533-8.533,8.533
				s-8.533-3.817-8.533-8.533C349.867,396.35,353.684,392.533,358.4,392.533z"/>
			<path d="M290.133,426.667c14.142,0,25.6-11.458,25.6-25.6s-11.458-25.6-25.6-25.6s-25.6,11.458-25.6,25.6
				S275.991,426.667,290.133,426.667z M290.133,392.533c4.716,0,8.533,3.817,8.533,8.533c0,4.716-3.817,8.533-8.533,8.533
				s-8.533-3.817-8.533-8.533C281.6,396.35,285.417,392.533,290.133,392.533z"/>
			<path d="M221.867,426.667c14.142,0,25.6-11.458,25.6-25.6s-11.458-25.6-25.6-25.6s-25.6,11.458-25.6,25.6
				S207.725,426.667,221.867,426.667z M221.867,392.533c4.716,0,8.533,3.817,8.533,8.533c0,4.716-3.817,8.533-8.533,8.533
				c-4.717,0-8.533-3.817-8.533-8.533C213.333,396.35,217.15,392.533,221.867,392.533z"/>
			<path d="M153.6,426.667c14.142,0,25.6-11.458,25.6-25.6s-11.458-25.6-25.6-25.6c-14.142,0-25.6,11.458-25.6,25.6
				S139.458,426.667,153.6,426.667z M153.6,392.533c4.716,0,8.533,3.817,8.533,8.533c0,4.716-3.817,8.533-8.533,8.533
				c-4.717,0-8.533-3.817-8.533-8.533C145.067,396.35,148.883,392.533,153.6,392.533z"/>
			<path d="M85.333,426.667c14.142,0,25.6-11.458,25.6-25.6s-11.458-25.6-25.6-25.6c-14.142,0-25.6,11.458-25.6,25.6
				S71.191,426.667,85.333,426.667z M85.333,392.533c4.717,0,8.533,3.817,8.533,8.533c0,4.716-3.817,8.533-8.533,8.533
				c-4.716,0-8.533-3.817-8.533-8.533C76.8,396.35,80.617,392.533,85.333,392.533z"/>
			<path d="M503.467,170.667h-179.2v-25.6c0-4.713-3.82-8.533-8.533-8.533h-51.2v-17.067H358.4c4.713,0,8.533-3.82,8.533-8.533
				V8.533c0-4.713-3.82-8.533-8.533-8.533H153.6c-4.713,0-8.533,3.82-8.533,8.533v102.4c0,4.713,3.821,8.533,8.533,8.533h93.867
				v17.067h-51.2c-4.713,0-8.533,3.82-8.533,8.533v25.6H8.533C3.82,170.667,0,174.487,0,179.2v170.667
				c0,4.713,3.82,8.533,8.533,8.533h17.338c-0.161,1.026-0.268,2.069-0.268,3.14v79.053c0,10.086,7.399,18.425,17.063,19.938v30.306
				c0,11.685,9.478,21.163,21.163,21.163h384.341c11.685,0,21.163-9.478,21.163-21.163v-30.306
				c9.665-1.514,17.07-9.852,17.07-19.938V361.54c0-1.071-0.108-2.114-0.269-3.14h17.332c4.713,0,8.533-3.82,8.533-8.533V179.2
				C512,174.487,508.18,170.667,503.467,170.667z M162.133,17.067h187.733V102.4H162.133V17.067z M204.8,153.6h102.4v17.067H204.8
				V153.6z M452.267,490.837c0,2.259-1.837,4.096-4.096,4.096H63.829c-2.259,0-4.096-1.837-4.096-4.096V460.8h392.533V490.837z
				 M469.337,361.54v79.053c0,1.73-1.411,3.14-3.149,3.14H460.8H51.2h-5.39c-1.734,0-3.14-1.406-3.14-3.14V361.54
				c0-1.734,1.406-3.14,3.14-3.14h420.378C467.926,358.4,469.337,359.81,469.337,361.54z M494.933,341.333h-28.745H45.81H17.067
				v-153.6h179.2h119.467h179.2V341.333z"/>
			<path d="M85.333,204.8H51.2c-4.713,0-8.533,3.821-8.533,8.533v34.133c0,4.713,3.82,8.533,8.533,8.533h34.133
				c4.713,0,8.533-3.82,8.533-8.533v-34.133C93.867,208.621,90.046,204.8,85.333,204.8z M76.8,238.933H59.733v-17.067H76.8V238.933z
				"/>
			<path d="M85.333,273.067H51.2c-4.713,0-8.533,3.821-8.533,8.533v34.133c0,4.713,3.82,8.533,8.533,8.533h34.133
				c4.713,0,8.533-3.82,8.533-8.533V281.6C93.867,276.887,90.046,273.067,85.333,273.067z M76.8,307.2H59.733v-17.067H76.8V307.2z"
				/>
			<path d="M153.6,204.8h-34.133c-4.713,0-8.533,3.821-8.533,8.533v34.133c0,4.713,3.82,8.533,8.533,8.533H153.6
				c4.713,0,8.533-3.82,8.533-8.533v-34.133C162.133,208.621,158.313,204.8,153.6,204.8z M145.067,238.933H128v-17.067h17.067
				V238.933z"/>
			<path d="M153.6,273.067h-34.133c-4.713,0-8.533,3.821-8.533,8.533v34.133c0,4.713,3.82,8.533,8.533,8.533H153.6
				c4.713,0,8.533-3.82,8.533-8.533V281.6C162.133,276.887,158.313,273.067,153.6,273.067z M145.067,307.2H128v-17.067h17.067V307.2
				z"/>
			<path d="M358.4,256h34.133c4.713,0,8.533-3.82,8.533-8.533v-34.133c0-4.713-3.821-8.533-8.533-8.533H358.4
				c-4.713,0-8.533,3.821-8.533,8.533v34.133C349.867,252.18,353.687,256,358.4,256z M366.933,221.867H384v17.067h-17.067V221.867z"
				/>
			<path d="M358.4,324.267h34.133c4.713,0,8.533-3.82,8.533-8.533V281.6c0-4.713-3.821-8.533-8.533-8.533H358.4
				c-4.713,0-8.533,3.821-8.533,8.533v34.133C349.867,320.446,353.687,324.267,358.4,324.267z M366.933,290.133H384V307.2h-17.067
				V290.133z"/>
			<path d="M426.667,256H460.8c4.713,0,8.533-3.82,8.533-8.533v-34.133c0-4.713-3.82-8.533-8.533-8.533h-34.133
				c-4.713,0-8.533,3.821-8.533,8.533v34.133C418.133,252.18,421.954,256,426.667,256z M435.2,221.867h17.067v17.067H435.2V221.867z
				"/>
			<path d="M426.667,324.267H460.8c4.713,0,8.533-3.82,8.533-8.533V281.6c0-4.713-3.82-8.533-8.533-8.533h-34.133
				c-4.713,0-8.533,3.821-8.533,8.533v34.133C418.133,320.446,421.954,324.267,426.667,324.267z M435.2,290.133h17.067V307.2H435.2
				V290.133z"/>
			<path d="M196.267,204.8c-4.713,0-8.533,3.821-8.533,8.533c0,4.713,3.82,8.533,8.533,8.533h119.467
				c4.713,0,8.533-3.821,8.533-8.533c0-4.713-3.82-8.533-8.533-8.533H196.267z"/>
			<path d="M315.733,307.2H196.267c-4.713,0-8.533,3.82-8.533,8.533s3.82,8.533,8.533,8.533h119.467c4.713,0,8.533-3.82,8.533-8.533
				S320.446,307.2,315.733,307.2z"/>
			<path d="M315.733,256H196.267c-4.713,0-8.533,3.82-8.533,8.533s3.82,8.533,8.533,8.533h119.467c4.713,0,8.533-3.82,8.533-8.533
				S320.446,256,315.733,256z"/>
		</g>
	</g>
</g>
</svg>